<svg width="495" height="287" xmlns="http://www.w3.org/2000/svg" xmlns:xlink="http://www.w3.org/1999/xlink" xmlns:svgjs="http://svgjs.com/svgjs" viewBox="99 782 495 287"><svg width="99" height="259" xmlns="http://www.w3.org/2000/svg" xmlns:xlink="http://www.w3.org/1999/xlink" xmlns:svgjs="http://svgjs.com/svgjs" viewBox="0.252 0 98.496 259" fill="#8cc6ff" x="495" y="782"><svg xmlns="http://www.w3.org/2000/svg" xmlns:xlink="http://www.w3.org/1999/xlink" width="99" height="259" viewBox="0.352 0.16 98.378 258.688"><path paint-order="stroke fill markers" fill-rule="evenodd" d="M1.043 100.385l.553.251 1.006.49c.666.327 1.256.654 1.872.98 1.257.654 2.338 1.346 3.456 2.05a73.27 73.27 0 0 1 6.372 4.498 86.614 86.614 0 0 1 11.172 10.469 95.14 95.14 0 0 1 9.187 12.027c2.69 4.219 5.084 8.62 7.163 13.17 2.04 4.492 3.79 9.11 5.241 13.825.666 2.363 1.408 4.713 1.923 7.088l.842 3.57.691 3.58a148.72 148.72 0 0 1 2.174 17.72v-22.407a108.433 108.433 0 0 0-4.373-16.275c-3.192-9.563-7.918-20.635-13.158-32.6-4.298-9.79-7.955-18.398-11.31-25.386-3.356-6.987-6.762-12.14-9.514-14.88 2.727 2.715 7.854 6.284 13.384 12.178a86.247 86.247 0 0 1 16.048 24.268 115.044 115.044 0 0 1 8.91 33.316V99.983a43.483 43.483 0 0 0-4.373-9.627c-3.192-5.492-7.54-11.562-12.014-18.537a123.174 123.174 0 0 1-8.257-15.822 78.341 78.341 0 0 0-5.027-10.318c1.37 2.049 4.826 4.172 8.797 7.44A57.35 57.35 0 0 1 44.3 66.779a60.113 60.113 0 0 1 8.408 21.642V69.909c-1.257-8.533-4.034-21.364-4.034-36.27 0-15.935 4.713-27.849 4.713-33.479 0 5.63 4.712 17.594 4.712 33.48 0 14.88-2.74 27.748-4.046 36.282v20.107a129.443 129.443 0 0 1 9.676-36.533 101.713 101.713 0 0 1 17.042-26.53 128.7 128.7 0 0 1 14.264-13.46c-3.205 2.803-6.724 8.509-10.356 16.087-3.631 7.578-7.603 17.029-12.303 27.648-5.643 13.07-10.582 25.135-13.912 35.579a116.466 116.466 0 0 0-4.411 17.87v31.28c.414-3.858.955-7.69 1.62-11.473 1.52-8.45 3.62-16.785 6.285-24.947a215.405 215.405 0 0 1 9.262-23.878c1.772-3.883 3.77-7.729 5.806-11.55 2.19-3.985 4.62-7.833 7.276-11.524a19.24 19.24 0 0 0-3.43 13.925c.277 2.26.76 4.49 1.445 6.66.678 2.15 1.47 4.186 2.237 6.084a7.264 7.264 0 0 1 0 6.535 15.382 15.382 0 0 1-4.085 4.524c-3.154 2.74-6.497 5.316-4.16 9.099 2.338 3.782 5.028 7.276 4.814 11.31a11.989 11.989 0 0 1-2.79 6.837 60.057 60.057 0 0 1-9.275 9.35 52.92 52.92 0 0 0-7.176 7.641 55.304 55.304 0 0 0-7.741 13.535l-.076.189v35.578c.126-.792 4.047-23.224 17.38-35.641 12.568-11.65 24.218-15.37 27.285-17.067-3.092 1.71-20.724 23.489-26.492 30.992-8.885 11.574-18.173 26.064-18.173 42.1v48.599h-1.37v-61.342a21.263 21.263 0 0 0-1.093-4.11 26.915 26.915 0 0 0-3.682-6.484 41.474 41.474 0 0 0-5.027-5.278c-1.81-1.571-3.645-2.954-5.367-4.21a8.457 8.457 0 0 1-3.908-5.857 20.107 20.107 0 0 1 .415-6.548c.188-1.106.402-2.211.54-3.292a14.35 14.35 0 0 0 0-3.029 4.788 4.788 0 0 0-3.293-4.235c-4.285-1.609-8.709-2.514-11.46-5.693a10.427 10.427 0 0 1-1.823-2.89 19.67 19.67 0 0 1-1.257-4.11c-.724-4.513-1.22-9.06-1.483-13.624a43.23 43.23 0 0 0-7.365-19.931c-3.443-5.09-7-7.893-7.54-8.119l.691.29z"/></svg></svg><svg width="79" height="204" xmlns="http://www.w3.org/2000/svg" xmlns:xlink="http://www.w3.org/1999/xlink" xmlns:svgjs="http://svgjs.com/svgjs" viewBox="0.668 0 77.663 204" fill="#8cc6ff" x="111" y="837"><svg xmlns="http://www.w3.org/2000/svg" xmlns:xlink="http://www.w3.org/1999/xlink" width="79" height="204" viewBox="0.933 0.532 77.403 203.316"><path paint-order="stroke fill markers" fill-rule="evenodd" d="M77.632 79.305l-.44.2-.792.378-1.458.766a62.521 62.521 0 0 0-2.727 1.609 60.402 60.402 0 0 0-5.027 3.544 68.232 68.232 0 0 0-8.797 8.231 75.856 75.856 0 0 0-7.226 9.451 85.935 85.935 0 0 0-5.618 10.356 89.232 89.232 0 0 0-4.122 10.896c-.528 1.86-1.106 3.707-1.508 5.58l-.666 2.802-.54 2.815A116.037 116.037 0 0 0 37 149.758v-17.545a84.428 84.428 0 0 1 3.444-12.793c2.513-7.54 6.208-16.2 10.33-25.613 3.38-7.69 6.284-14.465 8.935-19.957a45.78 45.78 0 0 1 7.478-11.7c-2.136 2.15-6.17 4.926-10.519 9.576a67.575 67.575 0 0 0-12.63 19.015 90.165 90.165 0 0 0-7 26.19v-37.94a34.513 34.513 0 0 1 3.43-7.541c2.514-4.298 5.97-9.074 9.451-14.553a94.511 94.511 0 0 0 6.485-12.442 61.76 61.76 0 0 1 3.972-8.106c-1.081 1.609-3.77 3.268-6.912 5.844a44.762 44.762 0 0 0-9.816 10.733 47.14 47.14 0 0 0-6.61 17.016V55.35c1.018-6.698 3.18-16.815 3.18-28.503 0-12.567-3.708-21.892-3.708-26.316 0 4.424-3.708 13.824-3.708 26.316 0 11.688 2.15 21.805 3.18 28.516V71.21a101.282 101.282 0 0 0-7.616-28.716A79.846 79.846 0 0 0 14.983 21.62a103.128 103.128 0 0 0-11.21-10.57c2.513 2.2 5.278 6.687 8.13 12.644 2.854 5.957 5.983 13.384 9.678 21.754 4.424 10.28 8.32 19.781 10.934 27.975a91.406 91.406 0 0 1 3.468 14.038v24.456a144.7 144.7 0 0 0-1.257-9.01 144.713 144.713 0 0 0-4.9-19.606 166.386 166.386 0 0 0-7.277-18.738 145.7 145.7 0 0 0-4.562-9.074 87.391 87.391 0 0 0-5.718-9.06 15.156 15.156 0 0 1 2.701 10.945 29.737 29.737 0 0 1-1.143 5.228c-.528 1.697-1.156 3.293-1.76 4.789a5.732 5.732 0 0 0 0 5.127 12.036 12.036 0 0 0 3.205 3.557c2.513 2.149 5.115 4.185 3.28 7.15-1.835 2.967-3.958 5.731-3.77 8.936a9.387 9.387 0 0 0 2.187 5.379 47.51 47.51 0 0 0 7.289 7.34 41.256 41.256 0 0 1 5.642 6.006 50.475 50.475 0 0 1 3.921 6.008c.993 1.847 1.672 3.48 2.162 4.637l.063.138v27.975c-.1-.628-3.192-18.26-13.66-28.013-9.854-9.161-19.04-12.077-21.453-13.421 2.438 1.344 16.337 18.461 20.824 24.355 6.987 9.099 14.276 20.485 14.276 33.09v38.193h1.056v-48.209c.18-1.102.466-2.183.855-3.23a21.62 21.62 0 0 1 2.89-5.102 33.27 33.27 0 0 1 3.908-4.147c1.42-1.257 2.866-2.313 4.223-3.306a6.698 6.698 0 0 0 3.066-4.6 15.672 15.672 0 0 0-.326-5.152c-.151-.867-.314-1.747-.415-2.589a10.742 10.742 0 0 1 0-2.375 3.77 3.77 0 0 1 2.59-3.33c3.367-1.257 6.848-1.96 9.01-4.474a8.277 8.277 0 0 0 1.433-2.275 14.89 14.89 0 0 0 .992-3.23 104.327 104.327 0 0 0 1.257-10.745 33.933 33.933 0 0 1 5.794-15.66 22.406 22.406 0 0 1 5.97-6.37l-.704.25z"/></svg></svg><svg width="76" height="144" xmlns="http://www.w3.org/2000/svg" xmlns:xlink="http://www.w3.org/1999/xlink" xmlns:svgjs="http://svgjs.com/svgjs" viewBox="0.246 0 75.507 144" fill="#385fd4" x="359" y="909"><svg xmlns="http://www.w3.org/2000/svg" xmlns:xlink="http://www.w3.org/1999/xlink" width="76" height="144" viewBox="0.945 0.807 74.794 142.64"><path paint-order="stroke fill markers" fill-rule="evenodd" d="M67.407 115.736c-2.06 8.71-5.09 18.487-8.231 27.711H6.996a253.2 253.2 0 0 1-3.456-12.19c-6.41-24.971.339-46.5 6.409-56.34 6.07-9.84 11.31-21.364 2.036-35.691C2.71 24.899 1.855 13.852 1.855 13.852 3.2 8.448 7.424 6.601 18.37 1.372l1.672-.565c2.324 9.426 7.213 16.916 15.885 18.437 11.31 1.998 21.503-4.902 26.655-16.992 5.027 1.458 10.52 3.03 13.158 4.512 0 0-13.824 30.024-16.463 47.002-2.639 16.979 14.44 35.353 8.131 61.97z"/></svg></svg><svg width="43" height="39" xmlns="http://www.w3.org/2000/svg" xmlns:xlink="http://www.w3.org/1999/xlink" xmlns:svgjs="http://svgjs.com/svgjs" viewBox="0 0.339 43 38.323" fill="#f6b3b5" x="379" y="890"><svg xmlns="http://www.w3.org/2000/svg" xmlns:xlink="http://www.w3.org/1999/xlink" width="43" height="39" viewBox="0.041 0.642 42.579 37.947"><path paint-order="stroke fill markers" fill-rule="evenodd" d="M15.926 38.244C7.254 36.723 2.366 29.233.04 19.807c3.632-1.257 12.165-4.16 14.54-5.341C17.622 12.946 16.768.642 16.768.642l16.074 4.562v11.951c0 1.131 4.587 2.514 9.777 4.097-5.19 12.09-15.395 19.002-26.693 16.992z"/></svg></svg><svg width="33" height="39" xmlns="http://www.w3.org/2000/svg" xmlns:xlink="http://www.w3.org/1999/xlink" xmlns:svgjs="http://svgjs.com/svgjs" viewBox="0 0.563 33 37.873" fill="#cb9eae" x="379" y="890"><svg xmlns="http://www.w3.org/2000/svg" xmlns:xlink="http://www.w3.org/1999/xlink" width="33" height="39" viewBox="0.078 0.83 32.763 37.602"><path paint-order="stroke fill markers" fill-rule="evenodd" d="M16.768.83l16.074 4.575v10.154a32.675 32.675 0 0 0-16.954 22.873C7.267 36.862 2.391 29.396.078 20.008c3.632-1.256 12.166-4.16 14.54-5.34C17.623 13.146 16.769.83 16.769.83z"/></svg></svg><svg width="48" height="16" xmlns="http://www.w3.org/2000/svg" xmlns:xlink="http://www.w3.org/1999/xlink" xmlns:svgjs="http://svgjs.com/svgjs" viewBox="0.623 0 46.753 16" fill="#f6b3b5" x="383" y="964"><svg xmlns="http://www.w3.org/2000/svg" xmlns:xlink="http://www.w3.org/1999/xlink" width="48" height="16" viewBox="0.924 0.078 46.196 15.809"><path paint-order="stroke fill markers" fill-rule="evenodd" d="M2.89 1.317c7.15 2.187 13.9 4.6 17.469 4.6 7.088 0 17.594-9.953 22.495-3.87 4.902 6.082 5.68 10.053 1.81 12.806-3.87 2.752-16.2-1.006-22.106.175-2.64.516-11.625.98-21.176.83C.578 12.063.69 5.125 2.89 1.318z"/></svg></svg><svg width="19" height="56" xmlns="http://www.w3.org/2000/svg" xmlns:xlink="http://www.w3.org/1999/xlink" xmlns:svgjs="http://svgjs.com/svgjs" viewBox="0.582 0 17.836 56" fill="#385fd4" x="355" y="920"><svg xmlns="http://www.w3.org/2000/svg" xmlns:xlink="http://www.w3.org/1999/xlink" width="19" height="56" viewBox="0.719 0.967 17.368 54.53"><path paint-order="stroke fill markers" fill-rule="evenodd" d="M5.579 2.852C7.238-3.796 20.924 8.42 17.556 19.554c-2.89 9.539-1.848 22.37-1.848 22.37L2.312 55.497c-4.537-5.58 1.922-47.253 3.267-52.645z"/></svg></svg><svg width="30" height="19" xmlns="http://www.w3.org/2000/svg" xmlns:xlink="http://www.w3.org/1999/xlink" xmlns:svgjs="http://svgjs.com/svgjs" viewBox="0 0.419 30 18.163" fill="#385fd4" x="356" y="961"><svg xmlns="http://www.w3.org/2000/svg" xmlns:xlink="http://www.w3.org/1999/xlink" width="30" height="19" viewBox="0.097 0.821 29.793 18.037"><path paint-order="stroke fill markers" fill-rule="evenodd" d="M10.247.987c5.19-.754 12.567 1.181 19.643 3.33-2.2 3.77-2.312 10.746-1.508 14.54-11.839-.175-24.544-1.256-27.07-4.372 0 .012-6.07-11.299 8.935-13.498z"/></svg></svg><svg width="19" height="30" xmlns="http://www.w3.org/2000/svg" xmlns:xlink="http://www.w3.org/1999/xlink" xmlns:svgjs="http://svgjs.com/svgjs" viewBox="0.295 0 18.409 30" fill="#f6b3b5" x="399" y="869"><svg xmlns="http://www.w3.org/2000/svg" xmlns:xlink="http://www.w3.org/1999/xlink" width="19" height="30" viewBox="0.563 0.604 17.571 28.634"><path paint-order="stroke fill markers" fill-rule="evenodd" d="M16.511 3.218c2.815 5.467 2.514 24.08-5.316 25.801C4.36 30.514.563 23.854.563 23.854V11.513a9.01 9.01 0 0 0 4.374-6.737C5.35 1.006 7.588.604 7.588.604s4.7 2.765 8.923 2.614z"/></svg></svg><svg width="25" height="49" xmlns="http://www.w3.org/2000/svg" xmlns:xlink="http://www.w3.org/1999/xlink" xmlns:svgjs="http://svgjs.com/svgjs" viewBox="0 0.058 25 48.884" fill="#385fd4" x="414" y="914"><svg xmlns="http://www.w3.org/2000/svg" xmlns:xlink="http://www.w3.org/1999/xlink" width="25" height="49" viewBox="0.154 0.847 24.507 47.92"><path paint-order="stroke fill markers" fill-rule="evenodd" d="M13.664 48.766c3.531-7.1 5.869-16.06 7.943-21.113 3.896-9.551 4.536-22.848-.868-25.889-9.953-5.09-14.163 12.43-14.842 17.519-.678 5.09-2.023 16.979-5.743 21.239l13.51 8.244z"/></svg></svg><svg width="42" height="57" xmlns="http://www.w3.org/2000/svg" xmlns:xlink="http://www.w3.org/1999/xlink" xmlns:svgjs="http://svgjs.com/svgjs" viewBox="0.305 0 41.39 57" fill="#001462" x="377" y="861"><svg xmlns="http://www.w3.org/2000/svg" xmlns:xlink="http://www.w3.org/1999/xlink" width="42" height="57" viewBox="0.358 0.477 40.929 56.364"><path paint-order="stroke fill markers" fill-rule="evenodd" d="M6.552 40.236c6.749-4.223-.766-27.472 10.544-36.445a14.842 14.842 0 0 1 24.18 12.09v33.34c-3.695-1.155-6.472-2.21-6.472-3.09v-9.79c6.208-3.947 6.284-20.02 3.707-25.135-4.222.15-8.923-2.615-8.923-2.615s-2.237.403-2.651 4.173a9.011 9.011 0 0 1-4.374 6.736v12.341c0 11.587-2.79 24.255-9.4 24.96-6.61.703-7.73-8.006-12.794-7.44 0 .012-.553-4.915 6.183-9.125z"/></svg></svg><svg width="26" height="29" xmlns="http://www.w3.org/2000/svg" xmlns:xlink="http://www.w3.org/1999/xlink" xmlns:svgjs="http://svgjs.com/svgjs" viewBox="0 0.248 26 28.505" fill="#385fd4" x="402" y="945"><svg xmlns="http://www.w3.org/2000/svg" xmlns:xlink="http://www.w3.org/1999/xlink" width="26" height="29" viewBox="0.68 0.951 24.984 27.391"><path paint-order="stroke fill markers" fill-rule="evenodd" d="M16.012.951c3.682 5.027 9.463 9.438 9.652 16.828-3.13 6.284-7.201 11.147-12.831 10.506C4.538 27.355 1.66 17.59.68 8.655 6.222 9.132 13.285 4.684 16.012.95z"/></svg></svg><svg width="21" height="54" xmlns="http://www.w3.org/2000/svg" xmlns:xlink="http://www.w3.org/1999/xlink" xmlns:svgjs="http://svgjs.com/svgjs" viewBox="0.595 0 19.809 54" fill="#f6b3b5" x="398" y="900"><svg xmlns="http://www.w3.org/2000/svg" xmlns:xlink="http://www.w3.org/1999/xlink" width="21" height="54" viewBox="0.495 0.446 19.53 53.238"><path paint-order="stroke fill markers" fill-rule="evenodd" d="M7.483.495c1.583.716 7.2 5.617 7.2 6.836 0 1.22-2.513 10.431-2.513 13.234 0 2.802 2.577 15.08 5.945 22.257a18.853 18.853 0 0 0 1.91 3.13c-2.727 3.77-9.79 8.13-15.333 7.703a99.833 99.833 0 0 1-.502-10.557s-.566-20.447-1.483-21.905c-.918-1.458-.842-3.519-.842-5.379v-3.77s-1.257-.088-1.37-2.3v-.2C.482 7.117 5.899-.223 7.483.493z"/></svg></svg><svg width="20" height="61" xmlns="http://www.w3.org/2000/svg" xmlns:xlink="http://www.w3.org/1999/xlink" xmlns:svgjs="http://svgjs.com/svgjs" viewBox="0.164 0 19.672 61" fill="#385fd4" x="250" y="909"><svg xmlns="http://www.w3.org/2000/svg" xmlns:xlink="http://www.w3.org/1999/xlink" width="20" height="61" viewBox="0.375 0.543 19.329 59.938"><path paint-order="stroke fill markers" fill-rule="evenodd" d="M19.704.543v59.67s-19.92.604-19.316 0c.603-.603 0-27.736 0-27.736L19.704.543z"/></svg></svg><svg width="45" height="82" xmlns="http://www.w3.org/2000/svg" xmlns:xlink="http://www.w3.org/1999/xlink" xmlns:svgjs="http://svgjs.com/svgjs" viewBox="0.021 0 44.958 82" fill="#001462" x="201" y="971"><svg xmlns="http://www.w3.org/2000/svg" xmlns:xlink="http://www.w3.org/1999/xlink" width="45" height="82" viewBox="0.086 0.727 44.036 80.318"><path paint-order="stroke fill markers" fill-rule="evenodd" d="M29.343 4.585a118.486 118.486 0 0 0 0 28.704c.616 4.813 14.78 47.756 14.78 47.756H9.6L.086 35.514 12.653.727l16.69 3.858z"/></svg></svg><svg width="47" height="82" xmlns="http://www.w3.org/2000/svg" xmlns:xlink="http://www.w3.org/1999/xlink" xmlns:svgjs="http://svgjs.com/svgjs" viewBox="0 0.541 47 80.917" fill="#385fd4" x="201" y="971"><svg xmlns="http://www.w3.org/2000/svg" xmlns:xlink="http://www.w3.org/1999/xlink" width="47" height="82" viewBox="0.073 0.765 46.864 80.683"><path paint-order="stroke fill markers" fill-rule="evenodd" d="M29.343 4.585a118.486 118.486 0 0 0 0 28.704c.616 4.813 17.594 48.158 17.594 48.158H9.587L.073 35.551 12.641.765l16.702 3.82z"/></svg></svg><svg width="59" height="90" xmlns="http://www.w3.org/2000/svg" xmlns:xlink="http://www.w3.org/1999/xlink" xmlns:svgjs="http://svgjs.com/svgjs" viewBox="0.087 0 58.827 90" fill="#385fd4" x="166" y="963"><svg xmlns="http://www.w3.org/2000/svg" xmlns:xlink="http://www.w3.org/1999/xlink" width="59" height="90" viewBox="0.986 0.747 57.977 88.701"><path paint-order="stroke fill markers" fill-rule="evenodd" d="M23.662.747c-5.027 15.935-27.875 21.1-21.59 46.851 4.536 18.587 13.824 41.85 13.824 41.85h43.068S45.441 48.917 45.441 43.55c0-5.366 8.483-32.952 8.483-32.952L23.662.747z"/></svg></svg><svg width="81" height="83" xmlns="http://www.w3.org/2000/svg" xmlns:xlink="http://www.w3.org/1999/xlink" xmlns:svgjs="http://svgjs.com/svgjs" viewBox="0 0.129 81 82.743" fill="#385fd4" x="189" y="896"><svg xmlns="http://www.w3.org/2000/svg" xmlns:xlink="http://www.w3.org/1999/xlink" width="81" height="83" viewBox="0.302 0.046 80.405 82.135"><path paint-order="stroke fill markers" fill-rule="evenodd" d="M73.742.046c5.027 2.425 9.727 13.22 5.027 23.35s-5.304 8.332-7.063 16.338c-1.76 8.005-1.068 12.366-15.634 22.282S41.959 74.583 41.292 79.61C40.627 84.637-.356 83.582.31 64.63c.666-18.952-.39-40.832 11.814-51.15C24.327 3.163 73.742.046 73.742.046z"/></svg></svg><svg width="21" height="58" xmlns="http://www.w3.org/2000/svg" xmlns:xlink="http://www.w3.org/1999/xlink" xmlns:svgjs="http://svgjs.com/svgjs" viewBox="0.068 0 20.864 58" fill="#001462" x="247" y="872"><svg xmlns="http://www.w3.org/2000/svg" xmlns:xlink="http://www.w3.org/1999/xlink" width="21" height="58" viewBox="0.358 0.583 20.461 56.88"><path paint-order="stroke fill markers" fill-rule="evenodd" d="M20.819.583v56.88S.17 46.378.359 35.533C.548 24.686 9.697.582 9.697.582h11.122z"/></svg></svg><svg width="18" height="42" xmlns="http://www.w3.org/2000/svg" xmlns:xlink="http://www.w3.org/1999/xlink" xmlns:svgjs="http://svgjs.com/svgjs" viewBox="0.585 0 16.831 42" fill="#f6b3b5" x="236" y="894"><svg xmlns="http://www.w3.org/2000/svg" xmlns:xlink="http://www.w3.org/1999/xlink" width="18" height="42" viewBox="0.928 0.751 16.388 40.895"><path paint-order="stroke fill markers" fill-rule="evenodd" d="M17.316 12.716s-2.752 4.449-3.682 6.359c-.93 1.91 3.205 10.368 1.847 17.594-1.357 7.226-10.343 6.02-12.341 0C2.537 34.86.928 21.99.928 21.99V.751l16.388 11.965z"/></svg></svg><svg width="18" height="42" xmlns="http://www.w3.org/2000/svg" xmlns:xlink="http://www.w3.org/1999/xlink" xmlns:svgjs="http://svgjs.com/svgjs" viewBox="0.61 0 16.779 42" fill="#cb9eae" x="236" y="894"><svg xmlns="http://www.w3.org/2000/svg" xmlns:xlink="http://www.w3.org/1999/xlink" width="18" height="42" viewBox="0.865 0.751 16.338 40.894"><path paint-order="stroke fill markers" fill-rule="evenodd" d="M13.634 19.075c-5.806-6.498-11.813 21.025-2.3 22.42h-.126l-1.357.15a7.264 7.264 0 0 1-6.774-5.026C2.474 34.809.865 21.94.865 21.94V.751l16.338 11.965s-2.64 4.449-3.57 6.359z"/></svg></svg><svg width="35" height="52" xmlns="http://www.w3.org/2000/svg" xmlns:xlink="http://www.w3.org/1999/xlink" xmlns:svgjs="http://svgjs.com/svgjs" viewBox="0.502 0 33.995 52" fill="#f6b3b5" x="232" y="855"><svg xmlns="http://www.w3.org/2000/svg" xmlns:xlink="http://www.w3.org/1999/xlink" width="35" height="52" viewBox="0.847 0.385 33.584 51.371"><path paint-order="stroke fill markers" fill-rule="evenodd" d="M33.419 15.961c2.815 17.494-.29 33.63-8.722 35.54-8.433 1.911-20.535-7.313-20.535-15.457 0-8.144-8.157-29.357 1.118-34.196C14.555-2.99 31.546 4.801 33.42 15.961z"/></svg></svg><svg width="67" height="75" xmlns="http://www.w3.org/2000/svg" xmlns:xlink="http://www.w3.org/1999/xlink" xmlns:svgjs="http://svgjs.com/svgjs" viewBox="0 0.627 67 73.746" fill="#001462" x="201" y="852"><svg xmlns="http://www.w3.org/2000/svg" xmlns:xlink="http://www.w3.org/1999/xlink" width="67" height="75" viewBox="0.115 0.972 66.708 73.425"><path paint-order="stroke fill markers" fill-rule="evenodd" d="M57.318 17.365a75.237 75.237 0 0 0 7.641 5.618c3.23 1.923 2.438-9.174-3.77-14.39-6.209-5.215-14.466-9.651-17.796-6.648 0 0-10.43-2.89-16.752 7.767-6.321 10.657-6.774 20.183-8.797 22.847-2.024 2.665-5.329 4.336-3.77 9.325 0 0-11.098-2.224-12.756 5.43C-.342 54.966.199 57.454.199 57.454a39.76 39.76 0 0 1 10.519-5.177s4.763 3.77 9.312 3.77c4.55 0 10.28 18.348 18.274 18.348l.062-43.71s18.022-2.312 18.952-13.32z"/></svg></svg><svg width="50" height="89" xmlns="http://www.w3.org/2000/svg" xmlns:xlink="http://www.w3.org/1999/xlink" xmlns:svgjs="http://svgjs.com/svgjs" viewBox="0.334 0 49.332 89" fill="#8cc6ff" x="349" y="962"><svg xmlns="http://www.w3.org/2000/svg" xmlns:xlink="http://www.w3.org/1999/xlink" width="50" height="89" viewBox="0.583 0.339 49.013 88.424"><path paint-order="stroke fill markers" fill-rule="evenodd" d="M10.574.339c20.962 21.83 39.022 88.424 39.022 88.424H19.434L.583 44.551 10.573.34z"/></svg></svg><svg width="111" height="102" xmlns="http://www.w3.org/2000/svg" xmlns:xlink="http://www.w3.org/1999/xlink" xmlns:svgjs="http://svgjs.com/svgjs" viewBox="0.1 0 110.8 102" fill="#8cc6ff" x="250" y="946"><svg xmlns="http://www.w3.org/2000/svg" xmlns:xlink="http://www.w3.org/1999/xlink" width="111" height="102" viewBox="0.388 0.219 109.951 101.218"><path paint-order="stroke fill markers" fill-rule="evenodd" d="M.388 19.946C4.774 14.919 28.137-1.419 57.922.353c26.265 1.571 47.517 9.677 51.652 15.986 3.028 4.625-3.607 35.767-8.22 48.17a108.872 108.872 0 0 0-6.635 36.924s-74.273-.427-74.713 0c-.44.427-9.225-27.397-10.381-41.246-1.156-13.85 1.408-29.132-9.237-40.241z"/></svg></svg><svg width="30" height="44" xmlns="http://www.w3.org/2000/svg" xmlns:xlink="http://www.w3.org/1999/xlink" xmlns:svgjs="http://svgjs.com/svgjs" viewBox="0.096 0 29.808 44" fill="#f6b3b5" x="290" y="920"><svg xmlns="http://www.w3.org/2000/svg" xmlns:xlink="http://www.w3.org/1999/xlink" width="30" height="44" viewBox="0.423 0.502 29.299 43.248"><path paint-order="stroke fill markers" fill-rule="evenodd" d="M.591.502s-.377 23.086 0 29.973c.377 6.887 11.047 13.096 15.005 13.272 3.96.175 12.757-5.693 14.126-15.509V7.39L.591.502z"/></svg></svg><svg width="30" height="32" xmlns="http://www.w3.org/2000/svg" xmlns:xlink="http://www.w3.org/1999/xlink" xmlns:svgjs="http://svgjs.com/svgjs" viewBox="0 0.251 30 31.498" fill="#cb9eae" x="290" y="920"><svg xmlns="http://www.w3.org/2000/svg" xmlns:xlink="http://www.w3.org/1999/xlink" width="30" height="32" viewBox="0.453 0.477 29.27 30.731"><path paint-order="stroke fill markers" fill-rule="evenodd" d="M.453 13.044C.453 6.358.59.477.59.477l29.131 6.887v17.092c-2.425 10.694-18.537 7.766-22.37-2.363-2.199-5.769-4.084-7.49-6.9-9.049z"/></svg></svg><svg width="37" height="54" xmlns="http://www.w3.org/2000/svg" xmlns:xlink="http://www.w3.org/1999/xlink" xmlns:svgjs="http://svgjs.com/svgjs" viewBox="0 0.245 37 53.51" fill="#f6b3b5" x="291" y="890"><svg xmlns="http://www.w3.org/2000/svg" xmlns:xlink="http://www.w3.org/1999/xlink" width="37" height="54" viewBox="0.374 0.969 36.132 52.254"><path paint-order="stroke fill markers" fill-rule="evenodd" d="M36.451 21.529c-1.093 16.916-7.992 33.291-18.914 31.57C3.99 50.948-.12 30.4.421 19.165.96 7.931 7.333.97 17.047.97c9.237.025 20.334 6.246 19.404 20.56z"/></svg></svg><svg width="7" height="13" xmlns="http://www.w3.org/2000/svg" xmlns:xlink="http://www.w3.org/1999/xlink" xmlns:svgjs="http://svgjs.com/svgjs" viewBox="0.634 0 5.733 13" fill="#8cc6ff" x="287" y="910"><svg xmlns="http://www.w3.org/2000/svg" xmlns:xlink="http://www.w3.org/1999/xlink" width="7" height="13" viewBox="0.889 0.66 5.394 12.231"><path paint-order="stroke fill markers" fill-rule="evenodd" d="M1.228 7.172c.73 3.368 2.376 5.931 3.67 5.705 1.295-.226 1.772-3.116 1.043-6.497C5.212 3 3.578.448 2.271.674.965.901.513 3.791 1.229 7.172z"/></svg></svg><svg width="42" height="30" xmlns="http://www.w3.org/2000/svg" xmlns:xlink="http://www.w3.org/1999/xlink" xmlns:svgjs="http://svgjs.com/svgjs" viewBox="0.428 0 41.144 30" fill="#001462" x="288" y="888"><svg xmlns="http://www.w3.org/2000/svg" xmlns:xlink="http://www.w3.org/1999/xlink" width="42" height="30" viewBox="0.548 0.028 40.782 29.736"><path paint-order="stroke fill markers" fill-rule="evenodd" d="M39.238 26.18c2.06-3.154 2.199-4.398 2.048-9.651-.15-5.253-4.574-5.417-4.486-7.666.088-2.25-2.765-8.257-14.44-8.797C10.685-.474 11.388 4.929 7.769 5.28c-3.62.352-9.225 4.06-6.497 17.343 0 0 3.18.302 4.423 6.711a.578.578 0 0 0 1.018.201 8.545 8.545 0 0 0 1.08-2.513c.868-3.205 4.362 1.608 5.028-4.789.452-4.549 11.574 3.77 19.819-3.581 0 0 1.257 1.633 4.75 1.52 1.999.05 1.848 6.008 1.848 6.008z"/></svg></svg><svg width="24" height="29" xmlns="http://www.w3.org/2000/svg" xmlns:xlink="http://www.w3.org/1999/xlink" xmlns:svgjs="http://svgjs.com/svgjs" viewBox="0.247 0 23.505 29" fill="#385fd4" x="306" y="947"><svg xmlns="http://www.w3.org/2000/svg" xmlns:xlink="http://www.w3.org/1999/xlink" width="24" height="29" viewBox="0.929 0.535 22.794 28.122"><path paint-order="stroke fill markers" fill-rule="evenodd" d="M13.735 28.371s-.968 1.257-2.752-1.508C9.198 24.098 3.04 15.791.929 16.621c4.323-.905 11.574-6.523 12.818-15.37V.535c3.431.477 6.724 1.055 9.853 1.721.855 4.876-2.815 20.711-9.865 26.115z"/></svg></svg><svg width="23" height="30" xmlns="http://www.w3.org/2000/svg" xmlns:xlink="http://www.w3.org/1999/xlink" xmlns:svgjs="http://svgjs.com/svgjs" viewBox="0.009 0 22.981 30" fill="#385fd4" x="281" y="947"><svg xmlns="http://www.w3.org/2000/svg" xmlns:xlink="http://www.w3.org/1999/xlink" width="23" height="30" viewBox="0.442 0.308 22.307 29.12"><path paint-order="stroke fill markers" fill-rule="evenodd" d="M9.591 3.475c.327 5.995 8.445 11.462 13.158 12.907-2.224-.867-10.406 9.89-11.826 12.266-1.42 2.375-4.021-.83-6.623-7.452C2.428 16.382-.488 8.1.731 2.256A82.805 82.805 0 0 1 9.528.308a56.751 56.751 0 0 0 .063 3.167z"/></svg></svg><svg width="23" height="31" xmlns="http://www.w3.org/2000/svg" xmlns:xlink="http://www.w3.org/1999/xlink" xmlns:svgjs="http://svgjs.com/svgjs" viewBox="0.418 0 22.164 31" fill="#8cc6ff" x="306" y="943"><svg xmlns="http://www.w3.org/2000/svg" xmlns:xlink="http://www.w3.org/1999/xlink" width="23" height="31" viewBox="0.916 0.211 21.724 30.384"><path paint-order="stroke fill markers" fill-rule="evenodd" d="M13.722 5.238V.211c4.361 1.91 8.395 3.52 8.798 6.02.867 4.876-3.042 19.078-8.798 24.08 0 0-.955 1.256-2.752-1.509C9.173 26.037 3.027 19.78.916 20.608c4.31-.905 11.575-6.522 12.806-15.37z"/></svg></svg><svg width="22" height="34" xmlns="http://www.w3.org/2000/svg" xmlns:xlink="http://www.w3.org/1999/xlink" xmlns:svgjs="http://svgjs.com/svgjs" viewBox="0.012 0 21.976 34" fill="#8cc6ff" x="282" y="941"><svg xmlns="http://www.w3.org/2000/svg" xmlns:xlink="http://www.w3.org/1999/xlink" width="22" height="34" viewBox="0.451 0.49 21.298 32.951"><path paint-order="stroke fill markers" fill-rule="evenodd" d="M1.314 6.384C2.51 3.657 6.43 1.444 8.428.49c0 3.707 0 7.012.163 8.985.314 5.995 8.433 11.462 13.158 12.907-2.237-.867-10.418 7.842-11.838 10.217-1.42 2.376-3.167-.39-6.045-6.886C.988 19.215-.66 10.833 1.314 6.383z"/></svg></svg><svg width="35" height="69" xmlns="http://www.w3.org/2000/svg" xmlns:xlink="http://www.w3.org/1999/xlink" xmlns:svgjs="http://svgjs.com/svgjs" viewBox="0.653 0 33.694 69" fill="#8cc6ff" x="235" y="965"><svg xmlns="http://www.w3.org/2000/svg" xmlns:xlink="http://www.w3.org/1999/xlink" width="35" height="69" viewBox="0.973 0.946 33.035 67.65"><path paint-order="stroke fill markers" fill-rule="evenodd" d="M.973 68.596c0-19.14 5.58-57.508 14.415-67.65 0 0 13.824 7.415 18.235 30.878 1.257 7.013-.917 27.058-1.495 35.515L.973 68.596z"/></svg></svg><svg width="56" height="30" xmlns="http://www.w3.org/2000/svg" xmlns:xlink="http://www.w3.org/1999/xlink" xmlns:svgjs="http://svgjs.com/svgjs" viewBox="0 0.275 56 29.45" fill="#8cc6ff" x="235" y="1023"><svg xmlns="http://www.w3.org/2000/svg" xmlns:xlink="http://www.w3.org/1999/xlink" width="56" height="30" viewBox="0.859 0.842 54.393 28.605"><path paint-order="stroke fill markers" fill-rule="evenodd" d="M54.938 29.447H12.925c-6.221 0-12.92-5.09-11.977-18.85C1.89-3.166 24.41-1.23 32.103 9.34l23.149 3.544-.314 16.563z"/></svg></svg><svg width="56" height="20" xmlns="http://www.w3.org/2000/svg" xmlns:xlink="http://www.w3.org/1999/xlink" xmlns:svgjs="http://svgjs.com/svgjs" viewBox="0 0.382 56 19.236" fill="#f6b3b5" x="281" y="1033"><svg xmlns="http://www.w3.org/2000/svg" xmlns:xlink="http://www.w3.org/1999/xlink" width="56" height="20" viewBox="0.969 0.599 54.871 18.848"><path paint-order="stroke fill markers" fill-rule="evenodd" d="M30.139 18.605l-1.998-1.86-6.033 2.137a9.713 9.713 0 0 1-3.267.565H6.839A7.942 7.942 0 0 1 .982 11.53a8.181 8.181 0 0 1 8.094-8.646H22.22a9.278 9.278 0 0 0 1.96-.214L33.533.722a5.755 5.755 0 0 1 4.047.641l5.29 3.041a13.732 13.732 0 0 1 2.803 2.15l9.614 9.639a1.91 1.91 0 0 1-1.344 3.254H32.25a3.078 3.078 0 0 1-2.111-.842z"/></svg></svg><svg width="76" height="92" xmlns="http://www.w3.org/2000/svg" xmlns:xlink="http://www.w3.org/1999/xlink" xmlns:svgjs="http://svgjs.com/svgjs" viewBox="0.257 0 75.485 92" fill="#385fd4" x="192" y="910"><svg xmlns="http://www.w3.org/2000/svg" xmlns:xlink="http://www.w3.org/1999/xlink" width="76" height="92" viewBox="0.854 0.799 74.563 90.876"><path paint-order="stroke fill markers" fill-rule="evenodd" d="M7.703 1.856c9.011-5.203 24.796 9.601 21.365 27.108-3.43 17.506 15.823 39.21 15.823 39.21S66.67 76.971 75.417 78.58a33.731 33.731 0 0 0-5.568 13.095c-14.314-1.169-34.837-4.084-43.131-10.996C14.151 70.235.854 31.666.854 19.463c.038-14.29 6.85-17.607 6.85-17.607z"/></svg></svg><svg width="59" height="23" xmlns="http://www.w3.org/2000/svg" xmlns:xlink="http://www.w3.org/1999/xlink" xmlns:svgjs="http://svgjs.com/svgjs" viewBox="0 0.193 59 22.614" fill="#f6b3b5" x="261" y="988"><svg xmlns="http://www.w3.org/2000/svg" xmlns:xlink="http://www.w3.org/1999/xlink" width="59" height="23" viewBox="0.925 0.58 57.442 22.016"><path paint-order="stroke fill markers" fill-rule="evenodd" d="M8.742.856h28.163s20.108 6.812 20.636 7.968c.528 1.156 1.558 8.093 0 9.727-1.558 1.634-11.763 4.5-14.377 3.984-2.614-.515-22.986-8.106-27.648-8.106-1.584 0-7.277-.15-14.591-.754A33.727 33.727 0 0 1 6.492.58c.74.158 1.493.25 2.25.276z"/></svg></svg><svg width="19" height="18" xmlns="http://www.w3.org/2000/svg" xmlns:xlink="http://www.w3.org/1999/xlink" xmlns:svgjs="http://svgjs.com/svgjs" viewBox="0.177 0 18.646 18" fill="#8cc6ff" x="432" y="955"><svg xmlns="http://www.w3.org/2000/svg" xmlns:xlink="http://www.w3.org/1999/xlink" width="19" height="18" viewBox="0.044 0.063 18.192 17.561"><path paint-order="stroke fill markers" fill-rule="evenodd" d="M18.235 15.143s-7.063 5.58-14.277 0C-3.255 9.563 1.708.063 1.708.063L18.236 8.86v6.283z"/></svg></svg><svg width="14" height="43" xmlns="http://www.w3.org/2000/svg" xmlns:xlink="http://www.w3.org/1999/xlink" xmlns:svgjs="http://svgjs.com/svgjs" viewBox="0.01 0 13.98 43" fill="#8cc6ff" x="440" y="917"><svg xmlns="http://www.w3.org/2000/svg" xmlns:xlink="http://www.w3.org/1999/xlink" width="14" height="43" viewBox="0.055 0.813 13.573 41.749"><path paint-order="stroke fill markers" fill-rule="evenodd" d="M.055.813v41.749h13.573V3.087L.055.813z"/></svg></svg><svg width="31" height="61" xmlns="http://www.w3.org/2000/svg" xmlns:xlink="http://www.w3.org/1999/xlink" xmlns:svgjs="http://svgjs.com/svgjs" viewBox="0.176 0 30.647 61" fill="#001462" x="445" y="992"><svg xmlns="http://www.w3.org/2000/svg" xmlns:xlink="http://www.w3.org/1999/xlink" width="31" height="61" viewBox="0.497 0.438 30.149 60.009"><path paint-order="stroke fill markers" fill-rule="evenodd" d="M17.187 29.557c1.256 6.975 8.734 16.752 13.46 30.89H3.651C1.062 43.47-1.275 20.684 2.395.438h15.583c-1.432 6.824-2.023 22.571-.791 29.119z"/></svg></svg><svg width="28" height="61" xmlns="http://www.w3.org/2000/svg" xmlns:xlink="http://www.w3.org/1999/xlink" xmlns:svgjs="http://svgjs.com/svgjs" viewBox="0.503 0 26.994 61" fill="#001462" x="461" y="992"><svg xmlns="http://www.w3.org/2000/svg" xmlns:xlink="http://www.w3.org/1999/xlink" width="28" height="61" viewBox="0.507 0.438 26.556 60.009"><path paint-order="stroke fill markers" fill-rule="evenodd" d="M27.063 28.049s-3.117 15.156-5.253 32.398h-7.164C9.921 46.31 2.494 36.57 1.186 29.557-.07 23.009.547 7.262 1.979.438h24.444l.641 27.61z"/></svg></svg><svg width="50" height="63" xmlns="http://www.w3.org/2000/svg" xmlns:xlink="http://www.w3.org/1999/xlink" xmlns:svgjs="http://svgjs.com/svgjs" viewBox="0.191 0 49.618 63" fill="#001462" x="461" y="990"><svg xmlns="http://www.w3.org/2000/svg" xmlns:xlink="http://www.w3.org/1999/xlink" width="50" height="63" viewBox="0.518 0.276 48.965 62.171"><path paint-order="stroke fill markers" fill-rule="evenodd" d="M1.978 2.438c.148-.733.345-1.455.591-2.162h46.914c-.653 22.622-2.425 45.042-3.506 62.171h-31.33C9.92 48.31 2.493 38.57 1.186 31.557-.045 25.009.546 9.262 1.978 2.438z"/></svg></svg><svg width="90" height="121" xmlns="http://www.w3.org/2000/svg" xmlns:xlink="http://www.w3.org/1999/xlink" xmlns:svgjs="http://svgjs.com/svgjs" viewBox="0.493 0 89.013 121" fill="#f6b3b5" x="439" y="878"><svg xmlns="http://www.w3.org/2000/svg" xmlns:xlink="http://www.w3.org/1999/xlink" width="90" height="121" viewBox="0.959 0.451 88.31 120.044"><path paint-order="stroke fill markers" fill-rule="evenodd" d="M39.449 2.65c27.736-7.44 46.5 4.952 49.553 22.735 2.815 16.25-17.594 66.545-17.594 86.891 0 0-32.89 16.954-63.063 2.162 0 0 4.524-21.578 0-40.693C3.82 54.63-2.2 43.696 2.915 29.985 7.452 18.008 26.53 6.132 39.45 2.65z"/></svg></svg><svg width="28" height="37" xmlns="http://www.w3.org/2000/svg" xmlns:xlink="http://www.w3.org/1999/xlink" xmlns:svgjs="http://svgjs.com/svgjs" viewBox="0.348 0 27.304 37" fill="#f6b3b5" x="457" y="862"><svg xmlns="http://www.w3.org/2000/svg" xmlns:xlink="http://www.w3.org/1999/xlink" width="28" height="37" viewBox="0.424 0.169 26.853 36.389"><path paint-order="stroke fill markers" fill-rule="evenodd" d="M11.131.277s10.481 13.17 14.892 17.368c4.412 4.198-3.77 12.781-9.915 16.426-4.085 2.413-12.706 5.027-10.167-2.425 0 0 1.445-4.198-5.517-10.155 0 0 7.729-23.086 10.707-21.214z"/></svg></svg><svg width="14" height="28" xmlns="http://www.w3.org/2000/svg" xmlns:xlink="http://www.w3.org/1999/xlink" xmlns:svgjs="http://svgjs.com/svgjs" viewBox="0.281 0 13.437 28" fill="#cb9eae" x="457" y="866"><svg xmlns="http://www.w3.org/2000/svg" xmlns:xlink="http://www.w3.org/1999/xlink" width="14" height="28" viewBox="0.424 0.55 13.003 27.096"><path paint-order="stroke fill markers" fill-rule="evenodd" d="M.424 17.491A152.068 152.068 0 0 1 7.235.551l3.419 1.608c3.97 8.156 4.687 23.513-4.713 25.487 0 0 1.445-4.198-5.517-10.155z"/></svg></svg><svg width="33" height="37" xmlns="http://www.w3.org/2000/svg" xmlns:xlink="http://www.w3.org/1999/xlink" xmlns:svgjs="http://svgjs.com/svgjs" viewBox="0.175 0 32.65 37" fill="#f6b3b5" x="437" y="850"><svg xmlns="http://www.w3.org/2000/svg" xmlns:xlink="http://www.w3.org/1999/xlink" width="33" height="37" viewBox="0.624 0.408 32.034 36.301"><path paint-order="stroke fill markers" fill-rule="evenodd" d="M27.009 9.877c-.892-5.027 3.607-5.404 5.027-1.257 1.596 4.788-.176 8.106-2.01 7 0 0 3.568 10.808-.93 17.318-4.5 6.51-10.243 4.01-17.432-3.054C5.494 23.79 1.472 16.362.844 13.547-.79 6.08 6.976.037 14.253.426c8.898.515 12.756 9.45 12.756 9.45z"/></svg></svg><svg width="36" height="28" xmlns="http://www.w3.org/2000/svg" xmlns:xlink="http://www.w3.org/1999/xlink" xmlns:svgjs="http://svgjs.com/svgjs" viewBox="0 0.473 36 27.053" fill="#001462" x="431" y="842"><svg xmlns="http://www.w3.org/2000/svg" xmlns:xlink="http://www.w3.org/1999/xlink" width="36" height="28" viewBox="0.282 0.66 35.178 26.436"><path paint-order="stroke fill markers" fill-rule="evenodd" d="M33.009 17.877c.276 2.953-.201 5.24-1.948 4.235-1.747-1.005-5.857-6.95-9.602-2.652S14.66 27.767 8 27c-8.595-.917-10.594-12.567-3.015-14.64 0 0-3.293-3.997 2.513-5.857 5.366-1.696 5.58-.64 9.325-4.85C18.984-.774 31.902.52 35.46 13.817c.05.088-2.891-.516-2.451 4.059z"/></svg></svg><svg width="37" height="84" xmlns="http://www.w3.org/2000/svg" xmlns:xlink="http://www.w3.org/1999/xlink" xmlns:svgjs="http://svgjs.com/svgjs" viewBox="0.381 0 36.237 84" fill="#f6b3b5" x="494" y="885"><svg xmlns="http://www.w3.org/2000/svg" xmlns:xlink="http://www.w3.org/1999/xlink" width="37" height="84" viewBox="0.981 0.576 35.924 83.273"><path paint-order="stroke fill markers" fill-rule="evenodd" d="M12.55 60.775c-.277-5.793-3.859-20.799-8.898-30.388-5.04-9.589-2.577-21.917 4.285-26.756 6.862-4.838 16.338-3.933 20.9 2.74 12.165 17.959 8.634 58.338 2.061 71.96-1.257 2.703-4.436 4.462-8.696 5.518 9.237-4.21-.05-25.273-9.652-23.074z"/></svg></svg><svg width="55" height="32" xmlns="http://www.w3.org/2000/svg" xmlns:xlink="http://www.w3.org/1999/xlink" xmlns:svgjs="http://svgjs.com/svgjs" viewBox="0.724 0 53.552 32" fill="#001462" x="417" y="939"><svg xmlns="http://www.w3.org/2000/svg" xmlns:xlink="http://www.w3.org/1999/xlink" width="55" height="32" viewBox="0.637 0.027 53.498 31.968"><path paint-order="stroke fill markers" fill-rule="evenodd" d="M53.77 23.213L35.548 1.17A3.142 3.142 0 0 0 32.292.14L1.377 8.66a1.006 1.006 0 0 0-.415 1.71l23.4 21.1c.49.453 1.176.628 1.823.465l26.78-6.284a1.496 1.496 0 0 0 .805-2.438z"/></svg></svg><svg width="72" height="26" xmlns="http://www.w3.org/2000/svg" xmlns:xlink="http://www.w3.org/1999/xlink" xmlns:svgjs="http://svgjs.com/svgjs" viewBox="0 0.596 72 24.808" fill="#f6b3b5" x="448" y="945"><svg xmlns="http://www.w3.org/2000/svg" xmlns:xlink="http://www.w3.org/1999/xlink" width="72" height="26" viewBox="0.827 0.615 71.17 24.521"><path paint-order="stroke fill markers" fill-rule="evenodd" d="M.89 8.492a10.243 10.243 0 0 1 5.857-5.807c1.257-.364 10.82-.2 15.948-.075 1.99.036 3.932.614 5.617 1.672 1.622 1.017 3.632 2.136 4.625 2.136H49.05a55.3 55.3 0 0 1 9.5-5.643c9.627-2.2 18.852 18.851 9.653 23.074-15.534 3.858-46.186-1.772-59.067-6.17a14.127 14.127 0 0 1-7.101-5.241A4.763 4.763 0 0 1 .89 8.492z"/></svg></svg><svg width="415" height="3" xmlns="http://www.w3.org/2000/svg" xmlns:xlink="http://www.w3.org/1999/xlink" xmlns:svgjs="http://svgjs.com/svgjs" viewBox="0 0.87 415 1.26" fill="#001462" x="144" y="1051"><svg xmlns="http://www.w3.org/2000/svg" xmlns:xlink="http://www.w3.org/1999/xlink" width="415" height="3" viewBox="0.03 0.794 414.008 1.257"><path paint-order="stroke fill markers" fill-rule="evenodd" d="M414.038 1.422l-51.752-.301-51.753-.114L207.028.794l-103.493.213-51.753.114L.03 1.422l51.752.314 51.753.113 103.493.202 103.505-.214 51.753-.1 51.752-.315z"/></svg></svg><svg width="52" height="7" xmlns="http://www.w3.org/2000/svg" xmlns:xlink="http://www.w3.org/1999/xlink" xmlns:svgjs="http://svgjs.com/svgjs" viewBox="0 0.084 52 6.831" fill="#001462" x="290" y="1049"><svg xmlns="http://www.w3.org/2000/svg" xmlns:xlink="http://www.w3.org/1999/xlink" width="52" height="7" viewBox="0.83 0.255 50.798 6.673"><path paint-order="stroke fill markers" fill-rule="evenodd" d="M49.541 6.929H5.417A4.575 4.575 0 0 1 .83 2.354 2.086 2.086 0 0 1 2.916.255H49.54a2.085 2.085 0 0 1 2.086 2.1v2.512a2.086 2.086 0 0 1-2.086 2.062z"/></svg></svg><svg width="123" height="73" xmlns="http://www.w3.org/2000/svg" xmlns:xlink="http://www.w3.org/1999/xlink" xmlns:svgjs="http://svgjs.com/svgjs" viewBox="0 0.101 123 72.799" fill="#f3943d" x="320" y="983"><svg xmlns="http://www.w3.org/2000/svg" xmlns:xlink="http://www.w3.org/1999/xlink" width="123" height="73" viewBox="0.085 0.402 122.54 72.527"><path paint-order="stroke fill markers" fill-rule="evenodd" d="M97.648 72.929H5.466a5.392 5.392 0 0 1-5.19-6.812L16.55 6.899A8.797 8.797 0 0 1 25.058.402h92.182a5.379 5.379 0 0 1 5.19 6.812l-16.262 59.23a8.797 8.797 0 0 1-8.52 6.485z"/></svg></svg><svg width="30" height="25" xmlns="http://www.w3.org/2000/svg" xmlns:xlink="http://www.w3.org/1999/xlink" xmlns:svgjs="http://svgjs.com/svgjs" viewBox="0.212 0 29.576 25" fill="#0060ff" x="147" y="1010"><svg xmlns="http://www.w3.org/2000/svg" xmlns:xlink="http://www.w3.org/1999/xlink" width="30" height="25" viewBox="0.297 0.095 28.754 24.305"><path paint-order="stroke fill markers" fill-rule="evenodd" d="M.297.095C1.68.472 3.615 2.005 5.74 4.054a83.265 83.265 0 0 0 7.427 6.635c1.785 1.37 3.544 2.627 5.254 3.833 1.709 1.207 3.317 2.401 4.737 3.595 2.916 2.325 5.128 4.612 5.895 6.283-.767-1.696-1.094-4.863-2.514-8.696a28.023 28.023 0 0 0-3.079-5.995 25.433 25.433 0 0 0-5.329-5.617A20.447 20.447 0 0 0 7.348.22C4.118.007 1.668.472.298.095z"/></svg></svg><svg width="14" height="46" xmlns="http://www.w3.org/2000/svg" xmlns:xlink="http://www.w3.org/1999/xlink" xmlns:svgjs="http://svgjs.com/svgjs" viewBox="0.352 0 13.297 46" fill="#0060ff" x="165" y="988"><svg xmlns="http://www.w3.org/2000/svg" xmlns:xlink="http://www.w3.org/1999/xlink" width="14" height="46" viewBox="0.91 0.002 13.056 45.167"><path paint-order="stroke fill markers" fill-rule="evenodd" d="M12.195 45.169c-.138-1.722.704-4.474 1.257-8.106a34.657 34.657 0 0 0-.226-13.07A48.46 48.46 0 0 0 6.703 8.912C4.19 4.928 1.815 2.05.91.002c.905 2.06 1.395 5.755 1.923 10.28A147.015 147.015 0 0 0 5.22 25.777a62.724 62.724 0 0 0 4.16 11.776c1.47 3.293 2.677 5.894 2.815 7.616z"/></svg></svg><svg width="26" height="32" xmlns="http://www.w3.org/2000/svg" xmlns:xlink="http://www.w3.org/1999/xlink" xmlns:svgjs="http://svgjs.com/svgjs" viewBox="0.029 0 25.943 32" fill="#0060ff" x="177" y="1003"><svg xmlns="http://www.w3.org/2000/svg" xmlns:xlink="http://www.w3.org/1999/xlink" width="26" height="32" viewBox="0.509 0.485 25.298 31.205"><path paint-order="stroke fill markers" fill-rule="evenodd" d="M25.808.485c-1.383.64-4.022.653-7.302 1.633A22.13 22.13 0 0 0 8.113 8.402a28.366 28.366 0 0 0-6.586 13.686C.698 26.373.937 29.742.51 31.69c.428-1.973 2.212-4.85 4.738-7.892 2.526-3.041 5.756-6.283 8.961-9.916 2.664-2.928 4.662-5.88 6.56-8.37 1.898-2.488 3.645-4.385 5.04-5.026z"/></svg></svg><svg width="33" height="33" xmlns="http://www.w3.org/2000/svg" xmlns:xlink="http://www.w3.org/1999/xlink" xmlns:svgjs="http://svgjs.com/svgjs" viewBox="0.313 0 32.374 33" fill="#0060ff" x="158" y="1023"><svg xmlns="http://www.w3.org/2000/svg" xmlns:xlink="http://www.w3.org/1999/xlink" width="33" height="33" viewBox="0.276 0.253 32.019 32.638"><path paint-order="stroke fill markers" fill-rule="evenodd" d="M2.682.253H29.89a2.413 2.413 0 0 1 2.388 2.702L28.96 30.767a2.4 2.4 0 0 1-2.388 2.124H6a2.4 2.4 0 0 1-2.387-2.124L.294 2.955A2.413 2.413 0 0 1 2.68.253z"/></svg></svg><svg width="36" height="13" xmlns="http://www.w3.org/2000/svg" xmlns:xlink="http://www.w3.org/1999/xlink" xmlns:svgjs="http://svgjs.com/svgjs" viewBox="0.033 0 35.934 13" fill="#0060ff" x="156" y="1022"><svg xmlns="http://www.w3.org/2000/svg" xmlns:xlink="http://www.w3.org/1999/xlink" width="36" height="13" viewBox="0.892 0.147 34.738 12.567"><path paint-order="stroke fill markers" fill-rule="evenodd" d="M35.623 1.404L34.366 11.71c-.075.57-.557.998-1.131 1.006H3.287a1.144 1.144 0 0 1-1.131-1.006L.899 1.404A1.132 1.132 0 0 1 2.03.147h32.461a1.13 1.13 0 0 1 1.132 1.257z"/></svg></svg><svg width="6" height="6" xmlns="http://www.w3.org/2000/svg" xmlns:xlink="http://www.w3.org/1999/xlink" xmlns:svgjs="http://svgjs.com/svgjs" fill="#9ba0b4" x="99" y="1063"><svg xmlns="http://www.w3.org/2000/svg" width="6" height="6" viewBox="1 0.997 4.248 4.248"><path paint-order="stroke fill markers" fill-rule="evenodd" d="M1.006 3.284a2.124 2.124 0 1 0 4.235-.326 2.124 2.124 0 0 0-4.235.326z"/></svg></svg></svg>