<svg width="725" height="592" viewBox="0 0 725 592" fill="none" xmlns="http://www.w3.org/2000/svg">
<g clip-path="url(#clip0_1_39)">
<rect width="725" height="592" fill="white"/>
<path d="M149 2.18557e-07L149 -5L139 -5L139 -2.18557e-07L149 2.18557e-07ZM144 589.867L172.867 561L144 532.133L115.132 561L144 589.867ZM139 12.75L139 17.75L149 17.75L149 12.75L139 12.75ZM149 38.25L149 33.25L139 33.25L139 38.25L149 38.25ZM139 63.75L139 68.75L149 68.75L149 63.75L139 63.75ZM149 89.25L149 84.25L139 84.25L139 89.25L149 89.25ZM139 114.75L139 119.75L149 119.75L149 114.75L139 114.75ZM149 140.25L149 135.25L139 135.25L139 140.25L149 140.25ZM139 165.75L139 170.75L149 170.75L149 165.75L139 165.75ZM149 191.25L149 186.25L139 186.25L139 191.25L149 191.25ZM139 216.75L139 221.75L149 221.75L149 216.75L139 216.75ZM149 242.25L149 237.25L139 237.25L139 242.25L149 242.25ZM139 267.75L139 272.75L149 272.75L149 267.75L139 267.75ZM149 293.25L149 288.25L139 288.25L139 293.25L149 293.25ZM139 318.75L139 323.75L149 323.75L149 318.75L139 318.75ZM149 344.25L149 339.25L139 339.25L139 344.25L149 344.25ZM139 369.75L139 374.75L149 374.75L149 369.75L139 369.75ZM149 395.25L149 390.25L139 390.25L139 395.25L149 395.25ZM139 420.75L139 425.75L149 425.75L149 420.75L139 420.75ZM149 446.25L149 441.25L139 441.25L139 446.25L149 446.25ZM139 471.75L139 476.75L149 476.75L149 471.75L139 471.75ZM149 497.25L149 492.25L139 492.25L139 497.25L149 497.25ZM139 522.75L139 527.75L149 527.75L149 522.75L139 522.75ZM149 548.25L149 543.25L139 543.25L139 548.25L149 548.25ZM139 -2.18557e-07L139 12.75L149 12.75L149 2.18557e-07L139 -2.18557e-07ZM139 38.25L139 63.75L149 63.75L149 38.25L139 38.25ZM139 89.25L139 114.75L149 114.75L149 89.25L139 89.25ZM139 140.25L139 165.75L149 165.75L149 140.25L139 140.25ZM139 191.25L139 216.75L149 216.75L149 191.25L139 191.25ZM139 242.25L139 267.75L149 267.75L149 242.25L139 242.25ZM139 293.25L139 318.75L149 318.75L149 293.25L139 293.25ZM139 344.25L139 369.75L149 369.75L149 344.25L139 344.25ZM139 395.25L139 420.75L149 420.75L149 395.25L139 395.25ZM139 446.25L139 471.75L149 471.75L149 446.25L139 446.25ZM139 497.25L139 522.75L149 522.75L149 497.25L139 497.25ZM139 548.25L139 561L149 561L149 548.25L139 548.25Z" fill="#FF6B00"/>
<path d="M115.132 561L144 589.868L172.868 561L144 532.132L115.132 561ZM715 566H720V556H715V566ZM158.275 566H163.275V556H158.275V566ZM186.825 556H181.825V566H186.825V556ZM215.375 566H220.375V556H215.375V566ZM243.925 556H238.925V566H243.925V556ZM272.475 566H277.475V556H272.475V566ZM301.025 556H296.025V566H301.025V556ZM329.575 566H334.575V556H329.575V566ZM358.125 556H353.125V566H358.125V556ZM386.675 566H391.675V556H386.675V566ZM415.225 556H410.225V566H415.225V556ZM443.775 566H448.775V556H443.775V566ZM472.325 556H467.325V566H472.325V556ZM500.875 566H505.875V556H500.875V566ZM529.425 556H524.425V566H529.425V556ZM557.975 566H562.975V556H557.975V566ZM586.525 556H581.525V566H586.525V556ZM615.075 566H620.075V556H615.075V566ZM643.625 556H638.625V566H643.625V556ZM672.175 566H677.175V556H672.175V566ZM700.725 556H695.725V566H700.725V556ZM144 566H158.275V556H144V566ZM186.825 566H215.375V556H186.825V566ZM243.925 566H272.475V556H243.925V566ZM301.025 566H329.575V556H301.025V566ZM358.125 566H386.675V556H358.125V566ZM415.225 566H443.775V556H415.225V566ZM472.325 566L500.875 566V556L472.325 556V566ZM529.425 566H557.975V556H529.425V566ZM586.525 566H615.075V556H586.525V566ZM643.625 566H672.175V556H643.625V566ZM700.725 566H715V556H700.725V566Z" fill="#FF6B00"/>
<circle cx="139" cy="281" r="120" fill="white" stroke="#FF6B00" stroke-width="10"/>
</g>
<defs>
<clipPath id="clip0_1_39">
<rect width="725" height="592" fill="white"/>
</clipPath>
</defs>
</svg>
