<?xml version="1.0" encoding="iso-8859-1"?>
<!-- Uploaded to: SVG Repo, www.svgrepo.com, Generator: SVG Repo Mixer Tools -->
<svg fill="#000000" height="25px" width="25px" version="1.1" id="Layer_1" xmlns="http://www.w3.org/2000/svg" xmlns:xlink="http://www.w3.org/1999/xlink" 
	 viewBox="0 0 491.403 491.403" xml:space="preserve">
<g>
	<g>
		<path d="M471.1,307.202h-61.4v-143.4h12.7c26.9,0,48.8-20.4,48.8-45.4v-73c0-25.1-21.9-45.4-48.8-45.4h-353
			c-26.9,0-48.8,20.4-48.8,45.4v72.9c0,25.1,21.9,45.4,48.8,45.4h12.7v143.4H20.5c-11.3,0-20.5,9.2-20.5,20.5v109.7
			c0,29.8,24.3,54.1,54.1,54.1h48.3c3.7,0,7.1-1.3,10.1-3.1c5.2,1.9,10.7,3.1,16.5,3.1h233.4c5.8,0,11.4-1.2,16.5-3.1
			c3,1.8,6.3,3.1,10.1,3.1h48.3c29.8,0,54.1-24.3,54.1-54.1v-109.6C491.6,316.302,482.4,307.202,471.1,307.202z M184.4,122.902
			h122.9v41H184.4V122.902z M368.8,327.702h-0.1v118.3c0,2.2-2.5,4.6-6.2,4.6H129.1c-3.6,0-6.2-2.4-6.2-4.6v-118.3v-163.9h20.5v20.5
			c0,11.3,9.2,20.5,20.5,20.5v61.4c0,11.3,9.2,20.5,20.5,20.5c11.3,0,20.5-9.2,20.5-20.5v-61.4h81.9v61.4c0,11.3,9.2,20.5,20.5,20.5
			s20.5-9.2,20.5-20.5v-61.4c11.3,0,20.5-9.2,20.5-20.5v-20.5h20.5V327.702z"/>
	</g>
</g>
<g>
	<g>
		<path d="M327.7,327.702H163.9c-11.3,0-20.5,9.2-20.5,20.5v61.4c0,11.3,9.2,20.5,20.5,20.5h163.8c11.3,0,20.5-9.2,20.5-20.5v-61.4
			C348.2,336.802,339,327.702,327.7,327.702z"/>
	</g>
</g>
</svg>