<svg width="725" height="592" viewBox="0 0 725 592" fill="none" xmlns="http://www.w3.org/2000/svg">
<g clip-path="url(#clip0_17_2)">
<rect width="725" height="592" fill="white"/>
<path d="M580 2.18557e-07L580 -5L590 -5L590 -2.18557e-07L580 2.18557e-07ZM585 589.868L556.133 561L585 532.132L613.868 561L585 589.868ZM590 12.75L590 17.75L580 17.75L580 12.75L590 12.75ZM580 38.25L580 33.25L590 33.25L590 38.25L580 38.25ZM590 63.75L590 68.75L580 68.75L580 63.75L590 63.75ZM580 89.25L580 84.25L590 84.25L590 89.25L580 89.25ZM590 114.75L590 119.75L580 119.75L580 114.75L590 114.75ZM580 140.25L580 135.25L590 135.25L590 140.25L580 140.25ZM590 165.75L590 170.75L580 170.75L580 165.75L590 165.75ZM580 191.25L580 186.25L590 186.25L590 191.25L580 191.25ZM590 216.75L590 221.75L580 221.75L580 216.75L590 216.75ZM580 242.25L580 237.25L590 237.25L590 242.25L580 242.25ZM590 267.75L590 272.75L580 272.75L580 267.75L590 267.75ZM580 293.25L580 288.25L590 288.25L590 293.25L580 293.25ZM590 318.75L590 323.75L580 323.75L580 318.75L590 318.75ZM580 344.25L580 339.25L590 339.25L590 344.25L580 344.25ZM590 369.75L590 374.75L580 374.75L580 369.75L590 369.75ZM580 395.25L580 390.25L590 390.25L590 395.25L580 395.25ZM590 420.75L590 425.75L580 425.75L580 420.75L590 420.75ZM580 446.25L580 441.25L590 441.25L590 446.25L580 446.25ZM590 471.75L590 476.75L580 476.75L580 471.75L590 471.75ZM580 497.25L580 492.25L590 492.25L590 497.25L580 497.25ZM590 522.75L590 527.75L580 527.75L580 522.75L590 522.75ZM580 548.25L580 543.25L590 543.25L590 548.25L580 548.25ZM590 -2.18557e-07L590 12.75L580 12.75L580 2.18557e-07L590 -2.18557e-07ZM590 38.25L590 63.75L580 63.75L580 38.25L590 38.25ZM590 89.25L590 114.75L580 114.75L580 89.25L590 89.25ZM590 140.25L590 165.75L580 165.75L580 140.25L590 140.25ZM590 191.25L590 216.75L580 216.75L580 191.25L590 191.25ZM590 242.25L590 267.75L580 267.75L580 242.25L590 242.25ZM590 293.25L590 318.75L580 318.75L580 293.25L590 293.25ZM590 344.25L590 369.75L580 369.75L580 344.25L590 344.25ZM590 395.25L590 420.75L580 420.75L580 395.25L590 395.25ZM590 446.25L590 471.75L580 471.75L580 446.25L590 446.25ZM590 497.25L590 522.75L580 522.75L580 497.25L590 497.25ZM590 548.25L590 561L580 561L580 548.25L590 548.25Z" fill="#FF6B00"/>
<path d="M613.868 561L585 589.868L556.132 561L585 532.132L613.868 561ZM14 566H9V556H14V566ZM570.725 566H565.725V556H570.725V566ZM542.175 556H547.175V566H542.175V556ZM513.625 566H508.625V556H513.625V566ZM485.075 556H490.075V566H485.075V556ZM456.525 566H451.525V556H456.525V566ZM427.975 556H432.975V566H427.975V556ZM399.425 566H394.425V556H399.425V566ZM370.875 556H375.875V566H370.875V556ZM342.325 566H337.325V556H342.325V566ZM313.775 556H318.775V566H313.775V556ZM285.225 566H280.225V556H285.225V566ZM256.675 556H261.675V566H256.675V556ZM228.125 566H223.125V556H228.125V566ZM199.575 556H204.575V566H199.575V556ZM171.025 566H166.025V556H171.025V566ZM142.475 556H147.475V566H142.475V556ZM113.925 566H108.925V556H113.925V566ZM85.3751 556H90.3751V566H85.3751V556ZM56.8251 566H51.8251V556H56.8251V566ZM28.2751 556H33.2751V566H28.2751V556ZM585 566H570.725V556H585V566ZM542.175 566H513.625V556H542.175V566ZM485.075 566H456.525V556H485.075V566ZM427.975 566H399.425V556H427.975V566ZM370.875 566H342.325V556H370.875V566ZM313.775 566H285.225V556H313.775V566ZM256.675 566L228.125 566V556L256.675 556V566ZM199.575 566H171.025V556H199.575V566ZM142.475 566H113.925V556H142.475V566ZM85.3751 566H56.8251V556H85.3751V566ZM28.2751 566H14V556H28.2751V566Z" fill="#FF6B00"/>
<circle cx="125" cy="125" r="120" transform="matrix(-1 0 0 1 715 156)" fill="white" stroke="#FF6B00" stroke-width="10"/>
</g>
<defs>
<clipPath id="clip0_17_2">
<rect width="725" height="592" fill="white"/>
</clipPath>
</defs>
</svg>
